<svg width="50" height="55" viewBox="0 0 50 55" fill="none" xmlns="http://www.w3.org/2000/svg">
<path d="M49.6037 41.6278L42.0829 28.64C43.6219 25.8134 44.4236 22.6446 44.4141 19.4263C44.4141 14.2741 42.3674 9.33298 38.7242 5.68984C35.0811 2.0467 30.1399 0 24.9877 0C19.8356 0 14.8944 2.0467 11.2513 5.68984C7.60812 9.33298 5.56142 14.2741 5.56142 19.4263C5.55187 22.6446 6.35361 25.8134 7.89258 28.64L0.371818 41.6278C0.127771 42.0505 -0.000480844 42.5301 1.35471e-06 43.0182C0.000483553 43.5063 0.129682 43.9856 0.374564 44.4078C0.619445 44.83 0.971348 45.1802 1.39477 45.423C1.81819 45.6658 2.29815 45.7926 2.78623 45.7906H10.751L14.8028 52.6176C14.9394 52.8438 15.1076 53.0494 15.3023 53.2281C15.8168 53.724 16.5027 54.0023 17.2172 54.0052H17.6057C18.0247 53.9478 18.425 53.7955 18.7762 53.5599C19.1273 53.3242 19.4199 53.0114 19.6316 52.6453L24.9877 43.4317L30.3439 52.7286C30.5587 53.0895 30.8527 53.3968 31.2036 53.6276C31.5546 53.8583 31.9533 54.0064 32.3698 54.0607H32.7583C33.4824 54.065 34.1795 53.7862 34.7009 53.2836C34.8876 53.1151 35.0467 52.9185 35.1727 52.7008L39.2245 45.8739H47.1893C47.6783 45.8758 48.1591 45.7485 48.5831 45.5048C49.0071 45.2612 49.3592 44.9098 49.6037 44.4863C49.863 44.0547 50 43.5606 50 43.0571C50 42.5535 49.863 42.0595 49.6037 41.6278ZM17.1895 45.8739L14.7195 41.7388C14.4763 41.3286 14.1315 40.9879 13.7183 40.7497C13.3051 40.5116 12.8375 40.3839 12.3606 40.379H7.55956L11.5281 33.4965C14.2609 36.1299 17.7051 37.9051 21.4355 38.6029L17.1895 45.8739ZM24.9877 33.3023C22.2433 33.3023 19.5606 32.4885 17.2787 30.9638C14.9968 29.439 13.2183 27.2719 12.168 24.7364C11.1178 22.2009 10.843 19.4109 11.3784 16.7193C11.9138 14.0276 13.2354 11.5551 15.176 9.61455C17.1166 7.67396 19.589 6.35241 22.2807 5.817C24.9724 5.28159 27.7623 5.55639 30.2978 6.60662C32.8333 7.65686 35.0005 9.43538 36.5252 11.7173C38.0499 13.9992 38.8637 16.6819 38.8637 19.4263C38.8637 23.1065 37.4018 26.6359 34.7995 29.2381C32.1973 31.8403 28.6679 33.3023 24.9877 33.3023ZM37.6149 40.379C37.138 40.3839 36.6704 40.5116 36.2572 40.7497C35.844 40.9879 35.4992 41.3286 35.256 41.7388L32.786 45.8739L28.5677 38.5196C32.2851 37.8075 35.7165 36.0339 38.4474 33.4133L42.4159 40.2957L37.6149 40.379Z" fill="url(#paint0_linear_1_74)"/>
<defs>
<linearGradient id="paint0_linear_1_74" x1="25" y1="0" x2="25" y2="54.0607" gradientUnits="userSpaceOnUse">
<stop stop-color="#FF8A00"/>
<stop offset="1" stop-color="#FFE600"/>
</linearGradient>
</defs>
</svg>
